<svg width="25" height="25.2" viewBox="0 0 18 19" xmlns="http://www.w3.org/2000/svg"><title>F835C1BC-894A-44F2-BCDE-59AE825B893C</title><path d="M8.853 6.62c1.165 0 1.895.97 1.895 2.538 0 1.568-.73 2.537-1.906 2.537-1.143 0-1.83-.958-1.83-2.537 0-1.59.687-2.537 1.841-2.537zM9.213 0C3.778 0 0 3.68 0 9.082c0 5.63 3.877 9.081 9.387 9.081 1.176 0 2.286-.152 3.136-.403v-1.742c-.621.229-1.808.381-2.973.381-4.486 0-7.546-2.678-7.546-7.263 0-4.377 2.94-7.405 7.132-7.405 4.127 0 6.86 2.56 6.86 6.523 0 2.32-.74 3.68-1.807 3.68-.686 0-1.035-.478-1.035-1.23V4.878h-2.21v1.307h-.153c-.424-.958-1.404-1.546-2.58-1.546-2.178 0-3.67 1.807-3.67 4.454 0 2.765 1.513 4.606 3.778 4.606 1.264 0 2.178-.588 2.625-1.677h.152c.24 1.056 1.274 1.71 2.625 1.71C16.377 13.731 18 11.52 18 8.09 18 3.245 14.374 0 9.212 0z" fill="#FFF" fill-rule="evenodd"/></svg>