<svg width="20" height="20" viewBox="0 0 20 20" xmlns="http://www.w3.org/2000/svg"><title>B6B184C7-016C-40CF-ADED-69B6B95032D7</title><path d="M19.938 8.89c-.032-.281-.36-.493-.643-.493-.917 0-1.73-.538-2.071-1.37a2.227 2.227 0 0 1 .56-2.473.555.555 0 0 0 .06-.754 9.896 9.896 0 0 0-1.584-1.6.557.557 0 0 0-.76.062c-.596.66-1.667.905-2.494.56A2.221 2.221 0 0 1 11.655.65a.555.555 0 0 0-.49-.584A9.984 9.984 0 0 0 8.914.06a.557.557 0 0 0-.496.572 2.225 2.225 0 0 1-1.37 2.134c-.817.333-1.88.09-2.475-.564a.558.558 0 0 0-.754-.064 9.933 9.933 0 0 0-1.618 1.6.556.556 0 0 0 .06.76c.696.63.92 1.633.559 2.495-.346.822-1.2 1.352-2.176 1.352a.544.544 0 0 0-.578.49 10.018 10.018 0 0 0-.004 2.275c.031.282.369.492.656.492.87-.022 1.706.517 2.057 1.37.35.853.125 1.846-.559 2.473a.556.556 0 0 0-.06.754c.464.591.997 1.13 1.581 1.6.23.185.563.159.761-.06.599-.662 1.67-.907 2.493-.561a2.218 2.218 0 0 1 1.353 2.17.555.555 0 0 0 .491.585 9.94 9.94 0 0 0 2.25.006.557.557 0 0 0 .495-.573 2.223 2.223 0 0 1 1.368-2.133c.823-.336 1.882-.09 2.477.564a.559.559 0 0 0 .755.063 9.956 9.956 0 0 0 1.617-1.6.555.555 0 0 0-.06-.76 2.216 2.216 0 0 1-.56-2.494 2.239 2.239 0 0 1 2.046-1.356l.124.003a.557.557 0 0 0 .585-.49c.088-.752.09-1.517.005-2.274zm-9.922 5.267c-2.48 0-4.136-1.658-4.136-4.136 0-2.477 1.656-4.135 4.136-4.135 2.48 0 4.136 1.658 4.136 4.135 0 2.478-1.656 4.136-4.136 4.136z" fill="#CDCECF" fill-rule="evenodd"/></svg>