<svg width="36" height="36" viewBox="0 0 36 36" xmlns="http://www.w3.org/2000/svg"><title>1FBCB712-173B-44A2-BB3E-716A9A437AB7</title><g fill="none" fill-rule="evenodd"><path d="M0 18C0 8.059 8.059 0 18 0s18 8.059 18 18-8.059 18-18 18S0 27.941 0 18z" fill="#CDCED2"/><path d="M14.25 19.2h7.5v-2.4h-7.5v2.4zm7.5-7.2h-2.5v2.4h2.5c2.125 0 3.75 1.56 3.75 3.6s-1.625 3.6-3.75 3.6h-2.5V24h2.5c3.5 0 6.25-2.64 6.25-6s-2.75-6-6.25-6zM10.5 18c0-2.04 1.625-3.6 3.75-3.6h2.5V12h-2.5C10.75 12 8 14.64 8 18s2.75 6 6.25 6h2.5v-2.4h-2.5c-2.125 0-3.75-1.56-3.75-3.6z" fill="#FFF"/></g></svg>