<svg xmlns="http://www.w3.org/2000/svg" width="36" height="36" viewBox="0 0 36 36">
    <path fill="#C2C8D0" fill-rule="nonzero" d="M8.488 18.616L17.917 9.2c.334-.334.782-.618 1.345-.85.563-.234 1.077-.35 1.543-.35h5.486c.457 0 .853.167 1.187.501.334.334.5.73.5 1.187v5.486c0 .466-.116.98-.349 1.543-.233.563-.516 1.006-.85 1.332l-9.43 9.442c-.324.325-.72.488-1.186.488a1.69 1.69 0 0 1-1.2-.488l-6.475-6.488A1.615 1.615 0 0 1 8 19.816c0-.457.163-.857.488-1.2zm14.077-5.203c.33.33.728.495 1.194.495.466 0 .864-.165 1.193-.495.33-.33.495-.727.495-1.193 0-.466-.165-.864-.495-1.193a1.626 1.626 0 0 0-1.193-.495c-.466 0-.864.165-1.194.495-.33.33-.494.727-.494 1.193 0 .466.165.864.494 1.193z"/>
</svg>
