<svg xmlns="http://www.w3.org/2000/svg" width="36" height="36" viewBox="0 0 36 36">
    <path fill="#C2C8D0" fill-rule="evenodd" d="M17.853 15.62c1.165 0 1.895.97 1.895 2.538 0 1.568-.73 2.537-1.906 2.537-1.143 0-1.83-.958-1.83-2.537 0-1.59.687-2.537 1.841-2.537zm.36-6.62C12.778 9 9 12.68 9 18.082c0 5.63 3.877 9.081 9.387 9.081 1.176 0 2.286-.152 3.136-.403v-1.742c-.621.229-1.808.381-2.973.381-4.486 0-7.546-2.678-7.546-7.263 0-4.377 2.94-7.405 7.132-7.405 4.127 0 6.86 2.56 6.86 6.523 0 2.32-.74 3.68-1.807 3.68-.686 0-1.035-.478-1.035-1.23v-5.826h-2.21v1.307h-.153c-.424-.958-1.404-1.546-2.58-1.546-2.178 0-3.67 1.807-3.67 4.454 0 2.765 1.513 4.606 3.778 4.606 1.264 0 2.178-.588 2.625-1.677h.152c.24 1.056 1.274 1.71 2.625 1.71 2.656 0 4.279-2.211 4.279-5.641C27 12.245 23.374 9 18.212 9z"/>
</svg>
