<svg xmlns="http://www.w3.org/2000/svg" width="36" height="36" viewBox="0 0 36 36">
    <path fill="#C2C8D0" fill-rule="nonzero" d="M27.025 23.476l-2.927-2.927c-.583-.58-1.548-.563-2.151.04l-1.474 1.475-.291-.162c-.931-.516-2.206-1.223-3.547-2.565-1.345-1.345-2.052-2.621-2.57-3.553l-.158-.284.99-.988.486-.487c.604-.604.62-1.57.039-2.152l-2.927-2.927c-.581-.581-1.547-.564-2.151.04l-.825.83.023.022a4.77 4.77 0 0 0-.68 1.2 4.97 4.97 0 0 0-.302 1.215c-.387 3.204 1.077 6.132 5.05 10.105 5.492 5.49 9.918 5.076 10.109 5.056.415-.05.814-.15 1.219-.307.435-.17.842-.4 1.194-.676l.018.016.836-.818c.603-.605.62-1.57.039-2.153z"/>
</svg>
